<svg xmlns="http://www.w3.org/2000/svg" viewBox="0 0 4.233 4.233"><path fill="#fff" d="M.628 2.89V1.604h-.48v-.172h1.156v.172H.821V2.89Zm.808-.468.183-.016q.012.11.06.18.047.07.146.113.1.043.224.043.11 0 .195-.033t.126-.09q.042-.057.042-.125t-.04-.12q-.04-.05-.132-.086-.058-.023-.26-.07-.2-.05-.28-.092-.105-.055-.157-.135-.05-.082-.05-.182 0-.11.062-.206.063-.097.183-.147.12-.05.268-.05.162 0 .285.053.125.052.191.154.067.101.072.23l-.185.013q-.015-.138-.102-.209-.085-.07-.253-.07-.176 0-.256.065-.08.063-.08.154 0 .078.057.13.056.05.29.104.236.052.324.092.127.059.188.15.06.089.06.206 0 .117-.066.22-.067.103-.192.16-.124.057-.28.057-.199 0-.333-.057-.133-.058-.21-.174-.076-.116-.08-.262Zm1.842.468-.565-1.458h.21l.378 1.06q.046.127.077.238.034-.12.078-.239l.395-1.06h.197l-.572 1.46Z" aria-label="TSV" font-family="Arial" font-size="2.038" style="-inkscape-font-specification:Arial"/></svg>